<svg xmlns="http://www.w3.org/2000/svg" width="1280" height="640" viewBox="0 0 1280 640">
  <defs>
    <linearGradient id="bg" x1="0%" y1="0%" x2="100%" y2="100%">
      <stop offset="0%" style="stop-color:#0a1628"/>
      <stop offset="50%" style="stop-color:#0d1b2a"/>
      <stop offset="100%" style="stop-color:#0a1420"/>
    </linearGradient>
    <linearGradient id="c1" x1="0%" y1="0%" x2="100%" y2="0%">
      <stop offset="0%" style="stop-color:#f472b6;stop-opacity:0"/>
      <stop offset="20%" style="stop-color:#f472b6;stop-opacity:0.9"/>
      <stop offset="50%" style="stop-color:#f9a8d4;stop-opacity:1"/>
      <stop offset="80%" style="stop-color:#f472b6;stop-opacity:0.9"/>
      <stop offset="100%" style="stop-color:#f472b6;stop-opacity:0"/>
    </linearGradient>
    <linearGradient id="c2" x1="0%" y1="0%" x2="100%" y2="0%">
      <stop offset="0%" style="stop-color:#22d3ee;stop-opacity:0"/>
      <stop offset="25%" style="stop-color:#67e8f9;stop-opacity:0.95"/>
      <stop offset="50%" style="stop-color:#a5f3fc;stop-opacity:1"/>
      <stop offset="75%" style="stop-color:#67e8f9;stop-opacity:0.95"/>
      <stop offset="100%" style="stop-color:#22d3ee;stop-opacity:0"/>
    </linearGradient>
    <linearGradient id="c3" x1="0%" y1="0%" x2="100%" y2="0%">
      <stop offset="0%" style="stop-color:#a78bfa;stop-opacity:0"/>
      <stop offset="25%" style="stop-color:#c4b5fd;stop-opacity:0.9"/>
      <stop offset="50%" style="stop-color:#ddd6fe;stop-opacity:1"/>
      <stop offset="75%" style="stop-color:#c4b5fd;stop-opacity:0.9"/>
      <stop offset="100%" style="stop-color:#a78bfa;stop-opacity:0"/>
    </linearGradient>
    <filter id="glow" x="-50%" y="-50%" width="200%" height="200%">
      <feGaussianBlur stdDeviation="3" result="blur"/>
      <feMerge><feMergeNode in="blur"/><feMergeNode in="SourceGraphic"/></feMerge>
    </filter>
    <radialGradient id="core" cx="50%" cy="42%" r="18%">
      <stop offset="0%" style="stop-color:#f9a8d4;stop-opacity:0.35"/>
      <stop offset="100%" style="stop-color:#0a1628;stop-opacity:0"/>
    </radialGradient>
  </defs>
  <rect width="1280" height="640" fill="url(#bg)"/>
  <g stroke="#1e3a5f" stroke-width="0.8" opacity="0.45" fill="#3b82f6">
    <line x1="80" y1="90" x2="180" y2="140"/><line x1="180" y1="140" x2="120" y2="220"/>
    <line x1="1100" y1="100" x2="1200" y2="160"/><line x1="1200" y1="160" x2="1150" y2="250"/>
    <line x1="100" y1="500" x2="200" y2="560"/><line x1="1080" y1="520" x2="1180" y2="480"/>
    <circle cx="80" cy="90" r="2"/><circle cx="180" cy="140" r="2.5"/><circle cx="120" cy="220" r="2"/>
    <circle cx="1100" cy="100" r="2"/><circle cx="1200" cy="160" r="2.5"/><circle cx="1150" cy="250" r="2"/>
    <circle cx="100" cy="500" r="2"/><circle cx="200" cy="560" r="2"/><circle cx="1080" cy="520" r="2"/><circle cx="1180" cy="480" r="2"/>
  </g>
  <ellipse cx="640" cy="270" rx="220" ry="100" fill="url(#core)"/>
  <g fill="none" stroke-linecap="round" filter="url(#glow)">
    <path d="M-40,300 C200,220 400,200 640,270 C880,340 1080,320 1320,240" stroke="url(#c1)" stroke-width="3" opacity="0.95"/>
    <path d="M-40,320 C220,240 420,210 640,280 C860,350 1060,340 1320,260" stroke="url(#c1)" stroke-width="2" opacity="0.7"/>
    <path d="M-40,280 C180,200 380,190 640,260 C900,330 1100,300 1320,220" stroke="url(#c1)" stroke-width="2.2" opacity="0.8"/>
    <path d="M-40,340 C240,260 440,230 640,300 C840,370 1040,360 1320,280" stroke="url(#c2)" stroke-width="3" opacity="0.95"/>
    <path d="M-40,360 C200,280 400,250 640,320 C880,390 1080,380 1320,300" stroke="url(#c2)" stroke-width="2" opacity="0.65"/>
    <path d="M-40,250 C200,180 420,170 640,240 C860,310 1060,290 1320,200" stroke="url(#c3)" stroke-width="2.8" opacity="0.9"/>
    <path d="M-40,380 C220,300 440,270 640,340 C860,410 1060,400 1320,320" stroke="url(#c3)" stroke-width="2.2" opacity="0.7"/>
    <path d="M-40,230 C180,160 400,150 640,220 C880,290 1100,270 1320,180" stroke="url(#c1)" stroke-width="1.6" opacity="0.55"/>
    <path d="M-40,400 C200,320 420,290 640,360 C860,430 1080,420 1320,340" stroke="url(#c2)" stroke-width="1.6" opacity="0.5"/>
  </g>
  <g stroke="#f472b6" stroke-width="1.5" opacity="0.5" fill="none">
    <rect x="560" y="300" width="160" height="40" rx="4" opacity="0.5"/>
    <rect x="575" y="255" width="130" height="40" rx="4" opacity="0.6"/>
    <rect x="590" y="210" width="100" height="40" rx="4" opacity="0.7"/>
    <line x1="640" y1="210" x2="640" y2="180"/><circle cx="640" cy="175" r="6" fill="#f472b6" opacity="0.7"/>
  </g>
  <text x="640" y="470" text-anchor="middle" font-family="ui-sans-serif, system-ui, -apple-system, Segoe UI, Helvetica, Arial, sans-serif" font-size="96" font-weight="600" fill="#e8eef7" letter-spacing="-1.5">agent</text>
  <line x1="450" y1="510" x2="520" y2="510" stroke="#f472b6" stroke-width="2"/>
  <text x="640" y="516" text-anchor="middle" font-family="ui-sans-serif, system-ui, Segoe UI, Helvetica, Arial, sans-serif" font-size="18" font-weight="500" fill="#94a3b8" letter-spacing="3">WORKER / ARBITER LOOP</text>
  <line x1="760" y1="510" x2="830" y2="510" stroke="#a78bfa" stroke-width="2"/>
</svg>
